<svg xmlns="http://www.w3.org/2000/svg" viewBox="0 0 1320 900" width="100%" height="100%" style="background:#0b1120; font-family: -apple-system, BlinkMacSystemFont, 'Segoe UI', Roboto, Helvetica, Arial, sans-serif;">
  <defs>
    <!-- Gradients -->
    <linearGradient id="simGrad" x1="0%" y1="0%" x2="100%" y2="100%">
      <stop offset="0%" stop-color="#38bdf8" stop-opacity="0.2"/>
      <stop offset="100%" stop-color="#0284c7" stop-opacity="0.05"/>
    </linearGradient>
    <linearGradient id="kafkaGrad" x1="0%" y1="0%" x2="100%" y2="100%">
      <stop offset="0%" stop-color="#f59e0b" stop-opacity="0.25"/>
      <stop offset="100%" stop-color="#b45309" stop-opacity="0.05"/>
    </linearGradient>
    <linearGradient id="sqlGrad" x1="0%" y1="0%" x2="100%" y2="100%">
      <stop offset="0%" stop-color="#3b82f6" stop-opacity="0.3"/>
      <stop offset="100%" stop-color="#1d4ed8" stop-opacity="0.08"/>
    </linearGradient>
    <linearGradient id="normGrad" x1="0%" y1="0%" x2="100%" y2="100%">
      <stop offset="0%" stop-color="#10b981" stop-opacity="0.25"/>
      <stop offset="100%" stop-color="#047857" stop-opacity="0.05"/>
    </linearGradient>
    <linearGradient id="uiGrad" x1="0%" y1="0%" x2="100%" y2="100%">
      <stop offset="0%" stop-color="#8b5cf6" stop-opacity="0.3"/>
      <stop offset="100%" stop-color="#6d28d9" stop-opacity="0.08"/>
    </linearGradient>
    <linearGradient id="dltGrad" x1="0%" y1="0%" x2="100%" y2="100%">
      <stop offset="0%" stop-color="#ef4444" stop-opacity="0.25"/>
      <stop offset="100%" stop-color="#991b1b" stop-opacity="0.05"/>
    </linearGradient>
    <linearGradient id="cacheGrad" x1="0%" y1="0%" x2="100%" y2="100%">
      <stop offset="0%" stop-color="#f97316" stop-opacity="0.25"/>
      <stop offset="100%" stop-color="#c2410c" stop-opacity="0.05"/>
    </linearGradient>
    <linearGradient id="lakeGrad" x1="0%" y1="0%" x2="100%" y2="100%">
      <stop offset="0%" stop-color="#06b6d4" stop-opacity="0.25"/>
      <stop offset="100%" stop-color="#0891b2" stop-opacity="0.05"/>
    </linearGradient>

    <!-- Markers -->
    <marker id="arrow" viewBox="0 0 10 10" refX="8" refY="5" markerWidth="6" markerHeight="6" orient="auto-start-reverse">
      <path d="M 0 1 L 10 5 L 0 9 z" fill="#94a3b8"/>
    </marker>
    <marker id="arrow-blue" viewBox="0 0 10 10" refX="8" refY="5" markerWidth="6" markerHeight="6" orient="auto-start-reverse">
      <path d="M 0 1 L 10 5 L 0 9 z" fill="#38bdf8"/>
    </marker>
    <marker id="arrow-green" viewBox="0 0 10 10" refX="8" refY="5" markerWidth="6" markerHeight="6" orient="auto-start-reverse">
      <path d="M 0 1 L 10 5 L 0 9 z" fill="#34d399"/>
    </marker>
    <marker id="arrow-orange" viewBox="0 0 10 10" refX="8" refY="5" markerWidth="6" markerHeight="6" orient="auto-start-reverse">
      <path d="M 0 1 L 10 5 L 0 9 z" fill="#fbbf24"/>
    </marker>
    <marker id="arrow-purple" viewBox="0 0 10 10" refX="8" refY="5" markerWidth="6" markerHeight="6" orient="auto-start-reverse">
      <path d="M 0 1 L 10 5 L 0 9 z" fill="#c084fc"/>
    </marker>
    <marker id="arrow-red" viewBox="0 0 10 10" refX="8" refY="5" markerWidth="6" markerHeight="6" orient="auto-start-reverse">
      <path d="M 0 1 L 10 5 L 0 9 z" fill="#f87171"/>
    </marker>

    <!-- Glow Filter -->
    <filter id="glow" x="-20%" y="-20%" width="140%" height="140%">
      <feGaussianBlur stdDeviation="3" result="blur" />
      <feComposite in="SourceGraphic" in2="blur" operator="over" />
    </filter>
  </defs>

  <!-- Title & Meta Header -->
  <text x="50" y="45" font-size="24" font-weight="700" fill="#f8fafc">FleetTruth: Runtime Data Flow Architecture</text>
  <text x="50" y="70" font-size="13" fill="#94a3b8">End-to-end ingestion, deterministic normalization, durable relational ledger, read projections, and analytical lifecycle</text>

  <!-- ================= BACKGROUND REGIONS / BOUNDARIES ================= -->
  <!-- Ingestion Zone -->
  <rect x="40" y="95" width="230" height="425" rx="12" fill="#0f172a" stroke="#1e293b" stroke-width="1.5" stroke-dasharray="4 4"/>
  <text x="55" y="120" font-size="11" font-weight="700" fill="#38bdf8" letter-spacing="1">INGESTION &amp; GENERATION</text>

  <!-- Core Pipeline & Storage Zone -->
  <rect x="290" y="95" width="480" height="775" rx="12" fill="#0f172a" stroke="#1e293b" stroke-width="1.5" stroke-dasharray="4 4"/>
  <text x="305" y="120" font-size="11" font-weight="700" fill="#10b981" letter-spacing="1">NORMALIZATION, DURABILITY &amp; STATE ENGINE</text>

  <!-- Control Plane & Assistant Zone -->
  <rect x="790" y="95" width="490" height="475" rx="12" fill="#0f172a" stroke="#1e293b" stroke-width="1.5" stroke-dasharray="4 4"/>
  <text x="805" y="120" font-size="11" font-weight="700" fill="#c084fc" letter-spacing="1">CONTROL PLANE, APPROVALS &amp; ASSISTANT</text>

  <!-- Sinks & Projections Zone -->
  <rect x="790" y="590" width="490" height="280" rx="12" fill="#0f172a" stroke="#1e293b" stroke-width="1.5" stroke-dasharray="4 4"/>
  <text x="805" y="615" font-size="11" font-weight="700" fill="#f59e0b" letter-spacing="1">PROJECTIONS &amp; HISTORICAL ANALYTICS</text>


  <!-- ================= CONNECTIONS (PATHS) ================= -->

  <!-- SIM -> IN -->
  <path d="M 155 210 L 155 260" fill="none" stroke="#38bdf8" stroke-width="2" marker-end="url(#arrow-blue)"/>

  <!-- IN -> K (Compose Mode) -->
  <path d="M 230 285 Q 260 285 285 240 Q 295 220 320 220" fill="none" stroke="#fbbf24" stroke-width="2" marker-end="url(#arrow-orange)"/>
  <rect x="235" y="228" width="85" height="18" rx="4" fill="#1e293b" stroke="#334155" stroke-width="1"/>
  <text x="277" y="240" font-size="9.5" fill="#fcd34d" text-anchor="middle" font-weight="600">Compose mode</text>

  <!-- IN -> N (Native Local Mode) -->
  <path d="M 230 320 Q 265 320 280 345 Q 295 370 320 370" fill="none" stroke="#38bdf8" stroke-width="2" marker-end="url(#arrow-blue)"/>
  <rect x="235" y="342" width="88" height="18" rx="4" fill="#1e293b" stroke="#334155" stroke-width="1"/>
  <text x="279" y="354" font-size="9.5" fill="#7dd3fc" text-anchor="middle" font-weight="600">native local mode</text>

  <!-- K -> N -->
  <path d="M 425 255 L 425 330" fill="none" stroke="#fbbf24" stroke-width="2" marker-end="url(#arrow-orange)"/>

  <!-- N -> SQL -->
  <path d="M 530 370 L 570 370" fill="none" stroke="#34d399" stroke-width="2.5" marker-end="url(#arrow-green)"/>
  <text x="550" y="360" font-size="9" fill="#86efac" text-anchor="middle" font-weight="600">atomic commit</text>

  <!-- N -> DLT -->
  <path d="M 425 410 L 425 455" fill="none" stroke="#f87171" stroke-width="2" marker-end="url(#arrow-red)"/>
  <text x="435" y="438" font-size="9" fill="#fca5a5" font-weight="600">invalid / unknown</text>

  <!-- UI -> API -->
  <path d="M 920 205 L 920 235" fill="none" stroke="#c084fc" stroke-width="2.5" marker-end="url(#arrow-purple)"/>

  <!-- API -> SQL -->
  <path d="M 810 265 Q 730 265 710 330" fill="none" stroke="#94a3b8" stroke-width="2" marker-end="url(#arrow)"/>
  <rect x="720" y="270" width="70" height="16" rx="3" fill="#1e293b"/>
  <text x="755" y="282" font-size="9" fill="#cbd5e1" text-anchor="middle">SQL queries</text>

  <!-- API -> M -->
  <path d="M 920 295 L 920 330" fill="none" stroke="#c084fc" stroke-width="2" marker-end="url(#arrow-purple)"/>

  <!-- M -> SQL -->
  <path d="M 810 365 L 755 365" fill="none" stroke="#34d399" stroke-width="2" marker-end="url(#arrow-green)"/>
  <text x="782" y="358" font-size="9" fill="#86efac" text-anchor="middle" font-weight="600">approve</text>

  <!-- R -> SQL -->
  <path d="M 645 255 L 645 330" fill="none" stroke="#94a3b8" stroke-width="2" marker-end="url(#arrow)"/>
  <text x="653" y="295" font-size="8.5" fill="#94a3b8">SKIP LOCKED</text>

  <!-- R -> N -->
  <path d="M 570 220 Q 510 220 480 270 Q 450 310 440 330" fill="none" stroke="#38bdf8" stroke-width="1.8" stroke-dasharray="3 3" marker-end="url(#arrow-blue)"/>
  <rect x="475" y="260" width="46" height="16" rx="3" fill="#1e293b"/>
  <text x="498" y="272" font-size="9" fill="#7dd3fc" text-anchor="middle">replay</text>

  <!-- API -> AG -->
  <path d="M 970 295 Q 970 380 970 420" fill="none" stroke="#c084fc" stroke-width="2" marker-end="url(#arrow-purple)"/>

  <!-- AG -> ML -->
  <path d="M 1045 440 L 1100 440" fill="none" stroke="#ec4899" stroke-width="1.8" marker-end="url(#arrow)"/>

  <!-- AG -> V -->
  <path d="M 1045 470 L 1100 470" fill="none" stroke="#ec4899" stroke-width="1.8" marker-end="url(#arrow)"/>

  <!-- SQL -> O (Outbox) -->
  <path d="M 655 425 L 655 500" fill="none" stroke="#38bdf8" stroke-width="2" marker-end="url(#arrow-blue)"/>
  <text x="663" y="465" font-size="9" fill="#7dd3fc">durable outbox</text>

  <!-- O -> REDIS -->
  <path d="M 755 535 Q 810 535 830 635" fill="none" stroke="#fbbf24" stroke-width="2" marker-end="url(#arrow-orange)"/>
  <rect x="765" y="575" width="75" height="16" rx="3" fill="#1e293b"/>
  <text x="802" y="587" font-size="8.5" fill="#fcd34d" text-anchor="middle">Resilience4j CB</text>

  <!-- O -> CASS -->
  <path d="M 755 545 Q 850 545 1060 635" fill="none" stroke="#f97316" stroke-width="2" marker-end="url(#arrow-orange)"/>

  <!-- SQL -> EX -->
  <path d="M 610 425 L 610 680" fill="none" stroke="#06b6d4" stroke-width="2" marker-end="url(#arrow)"/>
  <text x="600" y="560" font-size="9" fill="#67e8f9" text-anchor="end">historical rows</text>

  <!-- EX -> P -->
  <path d="M 725 715 L 815 715" fill="none" stroke="#06b6d4" stroke-width="2" marker-end="url(#arrow)"/>

  <!-- P -> B -->
  <path d="M 1030 715 L 1070 715" fill="none" stroke="#06b6d4" stroke-width="2" marker-end="url(#arrow)"/>


  <!-- ================= NODES ================= -->

  <!-- SIM: Synthetic Simulator -->
  <g id="node-sim">
    <rect x="60" y="145" width="190" height="65" rx="8" fill="url(#simGrad)" stroke="#0284c7" stroke-width="1.5"/>
    <rect x="70" y="153" width="28" height="16" rx="3" fill="#0284c7"/>
    <text x="84" y="165" font-size="9" font-weight="700" fill="#ffffff" text-anchor="middle">SIM</text>
    <text x="105" y="165" font-size="11.5" font-weight="700" fill="#f0f9ff">Synthetic Simulator</text>
    <text x="70" y="185" font-size="10" fill="#94a3b8">External vehicle generator</text>
    <text x="70" y="198" font-size="9" fill="#64748b">100K seed / active subset</text>
  </g>

  <!-- IN: Intake Adapter -->
  <g id="node-in">
    <rect x="60" y="260" width="190" height="75" rx="8" fill="url(#simGrad)" stroke="#38bdf8" stroke-width="1.5"/>
    <rect x="70" y="270" width="24" height="16" rx="3" fill="#0284c7"/>
    <text x="82" y="282" font-size="9" font-weight="700" fill="#ffffff" text-anchor="middle">IN</text>
    <text x="102" y="282" font-size="12" font-weight="700" fill="#f0f9ff">Intake Adapter</text>
    <text x="70" y="302" font-size="10" fill="#94a3b8">HTTP rate guard &amp; ingest</text>
    <text x="70" y="318" font-size="9" fill="#0284c7" font-weight="600">Dual mode: Local / Kafka</text>
  </g>

  <!-- K: Kafka raw VIN partitions -->
  <g id="node-k">
    <rect x="325" y="185" width="200" height="70" rx="8" fill="url(#kafkaGrad)" stroke="#f59e0b" stroke-width="1.8"/>
    <!-- Kafka Queue Graphic -->
    <path d="M 335 197 C 335 193, 345 193, 350 197 L 350 211 C 350 215, 335 215, 335 211 Z" fill="#b45309"/>
    <rect x="337" y="194" width="18" height="16" rx="3" fill="#d97706"/>
    <text x="346" y="206" font-size="9" font-weight="700" fill="#ffffff" text-anchor="middle">K</text>
    <text x="365" y="206" font-size="12" font-weight="700" fill="#fef3c7">Kafka Raw Stream</text>
    <text x="337" y="226" font-size="10" fill="#cbd5e1">VIN Partition Key (tenant:VIN)</text>
    <text x="337" y="241" font-size="9" fill="#f59e0b">Ordered, at-least-once retention</text>
  </g>

  <!-- N: Deterministic Normalization -->
  <g id="node-n">
    <rect x="325" y="330" width="205" height="80" rx="8" fill="url(#normGrad)" stroke="#10b981" stroke-width="2"/>
    <rect x="337" y="340" width="20" height="16" rx="3" fill="#059669"/>
    <text x="347" y="352" font-size="9" font-weight="700" fill="#ffffff" text-anchor="middle">N</text>
    <text x="365" y="353" font-size="12" font-weight="700" fill="#ecfdf5">Deterministic Normalizer</text>
    <text x="337" y="373" font-size="10" fill="#cbd5e1">Unit conversion &amp; bounds check</text>
    <text x="337" y="388" font-size="9.5" fill="#a7f3d0">Approved schema contract match</text>
    <text x="337" y="401" font-size="8.5" fill="#6ee7b7">VIN check, DTC parse, battery %</text>
  </g>

  <!-- DLT: Quarantine & Schema Incident -->
  <g id="node-dlt">
    <rect x="325" y="455" width="205" height="65" rx="8" fill="url(#dltGrad)" stroke="#ef4444" stroke-width="1.5"/>
    <rect x="337" y="465" width="30" height="16" rx="3" fill="#dc2626"/>
    <text x="352" y="477" font-size="9" font-weight="700" fill="#ffffff" text-anchor="middle">DLT</text>
    <text x="375" y="478" font-size="12" font-weight="700" fill="#fef2f2">Quarantine Incident</text>
    <text x="337" y="497" font-size="10" fill="#fca5a5">Dead-letter &amp; schema drift store</text>
    <text x="337" y="510" font-size="8.5" fill="#f87171">Retains raw payload for replay</text>
  </g>

  <!-- SQL: PostgreSQL or local H2 -->
  <g id="node-sql">
    <!-- Cylinder Database Shape -->
    <path d="M 570 345 C 570 335, 755 335, 755 345 L 755 415 C 755 425, 570 425, 570 415 Z" fill="url(#sqlGrad)" stroke="#3b82f6" stroke-width="2"/>
    <ellipse cx="662.5" cy="345" rx="92.5" ry="10" fill="#1e3a8a" stroke="#60a5fa" stroke-width="1.5"/>
    <rect x="585" y="360" width="32" height="16" rx="3" fill="#2563eb"/>
    <text x="601" y="372" font-size="9" font-weight="700" fill="#ffffff" text-anchor="middle">SQL</text>
    <text x="625" y="373" font-size="13" font-weight="700" fill="#eff6ff">PostgreSQL / Local H2</text>
    <text x="585" y="392" font-size="10" fill="#bfdbfe">Authoritative ACID Ledger &amp; State</text>
    <text x="585" y="406" font-size="9" fill="#93c5fd">events, revisions, alerts, outbox, audit</text>
  </g>

  <!-- R: Durable Replay Worker -->
  <g id="node-r">
    <rect x="570" y="185" width="185" height="70" rx="8" fill="#1e293b" stroke="#64748b" stroke-width="1.5"/>
    <rect x="580" y="195" width="20" height="16" rx="3" fill="#475569"/>
    <text x="590" y="207" font-size="9" font-weight="700" fill="#ffffff" text-anchor="middle">R</text>
    <text x="608" y="207" font-size="12" font-weight="700" fill="#f8fafc">Durable Replay</text>
    <text x="580" y="227" font-size="10" fill="#cbd5e1">100-event cursor pages</text>
    <text x="580" y="241" font-size="8.5" fill="#94a3b8">Post-approval batch re-eval</text>
  </g>

  <!-- O: Transactional Outbox Worker -->
  <g id="node-o">
    <rect x="570" y="500" width="185" height="70" rx="8" fill="#1e293b" stroke="#38bdf8" stroke-width="1.5"/>
    <rect x="580" y="510" width="20" height="16" rx="3" fill="#0284c7"/>
    <text x="590" y="522" font-size="9" font-weight="700" fill="#ffffff" text-anchor="middle">O</text>
    <text x="608" y="522" font-size="12" font-weight="700" fill="#f0f9ff">Outbox Worker</text>
    <text x="580" y="542" font-size="10" fill="#cbd5e1">Asynchronous sink dispatcher</text>
    <text x="580" y="556" font-size="8.5" fill="#38bdf8">Dual circuit breakers (Resilience4j)</text>
  </g>

  <!-- EX: Bounded Historical Export -->
  <g id="node-ex">
    <rect x="540" y="680" width="185" height="68" rx="8" fill="url(#lakeGrad)" stroke="#06b6d4" stroke-width="1.5"/>
    <rect x="550" y="690" width="24" height="16" rx="3" fill="#0891b2"/>
    <text x="562" y="702" font-size="9" font-weight="700" fill="#ffffff" text-anchor="middle">EX</text>
    <text x="582" y="702" font-size="12" font-weight="700" fill="#ecfeff">Historical Export</text>
    <text x="550" y="722" font-size="10" fill="#cffafe">Bounded range extractor</text>
    <text x="550" y="736" font-size="8.5" fill="#67e8f9">PyArrow telemetry batcher</text>
  </g>

  <!-- UI: React Operations Workspace -->
  <g id="node-ui">
    <rect x="815" y="145" width="210" height="60" rx="8" fill="url(#uiGrad)" stroke="#a855f7" stroke-width="2"/>
    <rect x="825" y="153" width="22" height="16" rx="3" fill="#7e22ce"/>
    <text x="836" y="165" font-size="9" font-weight="700" fill="#ffffff" text-anchor="middle">UI</text>
    <text x="855" y="165" font-size="12.5" font-weight="700" fill="#faf5ff">React Workspace</text>
    <text x="825" y="184" font-size="9.5" fill="#e9d5ff">Fleet ops, approvals, alerts, recovery</text>
    <text x="825" y="196" font-size="8.5" fill="#c084fc">Role-based JWT sessions (Admin/Eng/Viewer)</text>
  </g>

  <!-- API: Spring JWT API -->
  <g id="node-api">
    <rect x="815" y="235" width="210" height="60" rx="8" fill="url(#uiGrad)" stroke="#8b5cf6" stroke-width="2"/>
    <rect x="825" y="243" width="28" height="16" rx="3" fill="#6d28d9"/>
    <text x="839" y="255" font-size="9" font-weight="700" fill="#ffffff" text-anchor="middle">API</text>
    <text x="860" y="255" font-size="12.5" font-weight="700" fill="#faf5ff">Spring Boot API</text>
    <text x="825" y="274" font-size="9.5" fill="#e9d5ff">JWT auth, transactions, endpoints</text>
    <text x="825" y="286" font-size="8.5" fill="#c084fc">Control plane &amp; read orchestration</text>
  </g>

  <!-- M: Mapping Preview & Human Approval -->
  <g id="node-m">
    <rect x="815" y="330" width="210" height="60" rx="8" fill="#1e293b" stroke="#10b981" stroke-width="1.8"/>
    <rect x="825" y="338" width="20" height="16" rx="3" fill="#059669"/>
    <text x="835" y="350" font-size="9" font-weight="700" fill="#ffffff" text-anchor="middle">M</text>
    <text x="853" y="350" font-size="12" font-weight="700" fill="#ecfdf5">Mapping Approval</text>
    <text x="825" y="369" font-size="9.5" fill="#a7f3d0">Diff preview, dry-run on sample events</text>
    <text x="825" y="381" font-size="8.5" fill="#6ee7b7">Audited human engineer sign-off</text>
  </g>

  <!-- AG: Read-only Assistant Tools -->
  <g id="node-ag">
    <rect x="815" y="420" width="230" height="70" rx="8" fill="#1e293b" stroke="#ec4899" stroke-width="1.8"/>
    <rect x="825" y="430" width="24" height="16" rx="3" fill="#be185d"/>
    <text x="837" y="442" font-size="9" font-weight="700" fill="#ffffff" text-anchor="middle">AG</text>
    <text x="856" y="442" font-size="12" font-weight="700" fill="#fdf2f8">Assistant Tool Router</text>
    <text x="825" y="462" font-size="9.5" fill="#fbcfe8">Deterministic read-only operations</text>
    <text x="825" y="476" font-size="8.5" fill="#f472b6">Tenant-scoped tool invocation</text>
  </g>

  <!-- ML: Advisory Drift Classifier -->
  <g id="node-ml">
    <rect x="1100" y="415" width="160" height="50" rx="6" fill="#1e293b" stroke="#ec4899" stroke-width="1.5"/>
    <rect x="1108" y="422" width="22" height="14" rx="2" fill="#9d174d"/>
    <text x="1119" y="433" font-size="8.5" font-weight="700" fill="#ffffff" text-anchor="middle">ML</text>
    <text x="1136" y="433" font-size="11" font-weight="700" fill="#fdf2f8">Drift Classifier</text>
    <text x="1108" y="451" font-size="8.5" fill="#fbcfe8">Logistic reg (F1: 0.98)</text>
  </g>

  <!-- V: Static Runbooks / pgvector -->
  <g id="node-v">
    <rect x="1100" y="475" width="160" height="50" rx="6" fill="#1e293b" stroke="#8b5cf6" stroke-width="1.5"/>
    <rect x="1108" y="482" width="16" height="14" rx="2" fill="#6d28d9"/>
    <text x="1116" y="493" font-size="8.5" font-weight="700" fill="#ffffff" text-anchor="middle">V</text>
    <text x="1130" y="493" font-size="11" font-weight="700" fill="#faf5ff">Runbooks / Vector</text>
    <text x="1108" y="511" font-size="8.5" fill="#ddd6fe">Cosine search fallback</text>
  </g>

  <!-- REDIS: Redis Latest-State Projection -->
  <g id="node-redis">
    <rect x="815" y="635" width="215" height="60" rx="8" fill="url(#cacheGrad)" stroke="#f97316" stroke-width="1.8"/>
    <rect x="825" y="643" width="40" height="16" rx="3" fill="#c2410c"/>
    <text x="845" y="655" font-size="8.5" font-weight="700" fill="#ffffff" text-anchor="middle">REDIS</text>
    <text x="872" y="655" font-size="12" font-weight="700" fill="#fff7ed">Redis State Cache</text>
    <text x="825" y="674" font-size="9.5" fill="#fed7aa">Latest VIN projection (24h TTL)</text>
    <text x="825" y="686" font-size="8.5" fill="#fb923c">Disposable, non-authoritative</text>
  </g>

  <!-- CASS: Optional Cassandra Telemetry -->
  <g id="node-cass">
    <rect x="1060" y="635" width="200" height="60" rx="8" fill="url(#cacheGrad)" stroke="#ea580c" stroke-width="1.5"/>
    <rect x="1070" y="643" width="38" height="16" rx="3" fill="#9a3412"/>
    <text x="1089" y="655" font-size="8.5" font-weight="700" fill="#ffffff" text-anchor="middle">CASS</text>
    <text x="1115" y="655" font-size="12" font-weight="700" fill="#fff7ed">Cassandra Sink</text>
    <text x="1070" y="674" font-size="9.5" fill="#fed7aa">Append telemetry buckets</text>
    <text x="1070" y="686" font-size="8.5" fill="#fb923c">Tenant/VIN/hour partitions</text>
  </g>

  <!-- P: Partitioned Parquet -->
  <g id="node-p">
    <rect x="815" y="715" width="215" height="60" rx="8" fill="url(#lakeGrad)" stroke="#06b6d4" stroke-width="1.8"/>
    <rect x="825" y="723" width="18" height="16" rx="3" fill="#0891b2"/>
    <text x="834" y="735" font-size="9" font-weight="700" fill="#ffffff" text-anchor="middle">P</text>
    <text x="850" y="735" font-size="12" font-weight="700" fill="#ecfeff">Partitioned Parquet</text>
    <text x="825" y="754" font-size="9.5" fill="#cffafe">Event day &amp; OEM lake partitions</text>
    <text x="825" y="766" font-size="8.5" fill="#67e8f9">Columnar compressed archive</text>
  </g>

  <!-- B: DuckDB / Spark Cluster Job -->
  <g id="node-b">
    <rect x="1060" y="715" width="200" height="60" rx="8" fill="url(#lakeGrad)" stroke="#0891b2" stroke-width="1.5"/>
    <rect x="1070" y="723" width="18" height="16" rx="3" fill="#0e7490"/>
    <text x="1079" y="735" font-size="9" font-weight="700" fill="#ffffff" text-anchor="middle">B</text>
    <text x="1096" y="735" font-size="12" font-weight="700" fill="#ecfeff">DuckDB / Spark Job</text>
    <text x="1070" y="754" font-size="9.5" fill="#cffafe">Local DuckDB analytics query</text>
    <text x="1070" y="766" font-size="8.5" fill="#67e8f9">Portable cluster batch workload</text>
  </g>

  <!-- Footer Legend -->
  <g transform="translate(50, 830)">
    <circle cx="10" cy="10" r="5" fill="#38bdf8"/>
    <text x="25" y="14" font-size="11" fill="#94a3b8">Ingress Stream</text>

    <circle cx="140" cy="10" r="5" fill="#10b981"/>
    <text x="155" y="14" font-size="11" fill="#94a3b8">Normalizer / Store</text>

    <circle cx="300" cy="10" r="5" fill="#ef4444"/>
    <text x="315" y="14" font-size="11" fill="#94a3b8">Quarantine / DLQ</text>

    <circle cx="450" cy="10" r="5" fill="#8b5cf6"/>
    <text x="465" y="14" font-size="11" fill="#94a3b8">Control API / UI</text>

    <circle cx="600" cy="10" r="5" fill="#f59e0b"/>
    <text x="615" y="14" font-size="11" fill="#94a3b8">Outbox Projections</text>

    <circle cx="755" cy="10" r="5" fill="#06b6d4"/>
    <text x="770" y="14" font-size="11" fill="#94a3b8">Parquet Lake / Analytics</text>
  </g>
</svg>
